<svg width="139" height="157" viewBox="0 0 139 157" fill="none" xmlns="http://www.w3.org/2000/svg">
<path d="M69.6524 1.5C78.2043 1.50183 93.5046 3.41064 106.282 13.5205C119.029 23.6059 129.358 41.9283 127.862 74.9551L110.095 130.669C109.518 132.477 108.367 134.033 106.799 135.093C100.737 139.188 85.3119 149.435 75.7432 154.262C68.8363 157.746 63.4409 156.44 60.0381 154.286C50.127 148.012 36.4628 137.807 30.6817 133.429C28.9758 132.137 27.764 130.315 27.209 128.244L12.9297 74.9453C11.9207 68.8262 9.92358 50.9523 16.2598 34.3711C19.4269 26.0831 24.6722 18.1285 33.1582 12.1162C41.6441 6.10409 53.4069 2.00868 69.6524 1.5Z" fill="#594369" stroke="black"/>
<path d="M125.591 82.5242L126.61 90.6767C126.61 90.6767 136.291 95.2624 137.819 99.8481C139.348 104.434 130.727 122.777 129.157 124.305C127.588 125.834 110.814 127.872 110.814 127.872L125.591 82.5242Z" fill="#C3ADD3"/>
<path d="M126.61 90.6767L125.591 82.5242L110.814 127.872M126.61 90.6767C126.61 90.6767 136.291 95.2624 137.819 99.8481C139.348 104.434 130.727 122.777 129.157 124.305C127.588 125.834 110.814 127.872 110.814 127.872M126.61 90.6767L114.381 124.305L110.814 127.872" stroke="#2D2D2D" stroke-width="0.996899"/>
<g filter="url(#filter0_i_1_58)">
<path d="M70.0105 85.5695C70.3405 85.5996 70.6985 85.8491 71.0584 86.2951C71.4064 86.7265 71.6883 87.2581 71.8787 87.676C72.1277 88.2224 72.6726 88.629 73.3171 88.6291H73.99C74.5283 88.6291 75.0257 88.9176 75.2927 89.3849L76.4666 91.4396C76.7336 91.907 77.231 92.1955 77.7693 92.1955H92.3474C93.5909 92.1956 94.779 92.7103 95.6296 93.6174L96.6179 94.6711C97.4001 95.5051 97.8356 96.6058 97.8357 97.7492V121.983C97.8357 122.456 97.7608 122.927 97.614 123.377L90.2703 145.896C90.2644 145.9 90.2589 145.904 90.2527 145.908C90.1472 145.979 89.9907 146.082 89.7888 146.215C89.3851 146.48 88.7985 146.861 88.0691 147.32C86.6097 148.241 84.5803 149.478 82.2976 150.746C77.7069 153.297 72.1799 155.923 68.2117 156.419C66.3045 156.658 63.9982 156.092 61.5671 155.054C59.1474 154.02 56.6608 152.543 54.4138 151.024C52.1688 149.506 50.1743 147.955 48.741 146.783C48.0247 146.198 47.4493 145.707 47.0535 145.363C46.8556 145.192 46.7025 145.057 46.5994 144.965C46.5779 144.946 46.5588 144.929 46.5418 144.913C46.5392 144.906 46.5367 144.897 46.5339 144.889C46.5014 144.789 46.4535 144.641 46.3914 144.45C46.2671 144.069 46.0856 143.514 45.8601 142.821C45.409 141.436 44.7788 139.499 44.0613 137.295C42.6345 132.913 40.8636 127.473 39.4744 123.206V97.7277C39.4744 96.5925 39.9037 95.5061 40.6775 94.673L41.2205 94.089C42.0456 93.2009 43.1941 92.6834 44.406 92.6535L62.3709 92.2092C62.8957 92.1961 63.376 91.9101 63.6365 91.4543L64.8181 89.3849C65.0852 88.9176 65.5826 88.6291 66.1209 88.6291H66.3386C66.9415 88.6291 67.4632 88.2721 67.7293 87.7726C67.9661 87.328 68.3294 86.7279 68.7644 86.259C69.2176 85.7705 69.6435 85.5361 70.0105 85.5695Z" fill="#DDDDDD" stroke="black"/>
</g>
<path d="M14.9787 83.0032L13.4958 91.0841C13.4958 91.0841 3.56873 95.1096 1.78079 99.6005C-0.0071622 104.092 7.55257 122.897 9.032 124.513C10.5114 126.128 27.1414 129.121 27.1414 129.121L14.9787 83.0032Z" fill="#C3ADD3"/>
<path d="M13.4958 91.0841L14.9787 83.0032L27.1414 129.121M13.4958 91.0841C13.4958 91.0841 3.56873 95.1096 1.78078 99.6005C-0.00716266 104.092 7.55257 122.897 9.032 124.513C10.5114 126.128 27.1414 129.121 27.1414 129.121M13.4958 91.0841L23.7842 125.356L27.1414 129.121" stroke="#2D2D2D" stroke-width="0.996899"/>
<path d="M64.4507 96.791C64.4507 96.791 64.8422 99.2298 64.4507 100.358C63.8491 102.091 61.6495 101.886 61.14 103.415C60.6607 104.852 61.1612 106.127 62.4126 106.981C63.7271 107.879 65.156 106.111 66.4888 106.981C67.3218 107.526 67.7638 108.51 67.7638 108.51C67.7638 108.51 69.0509 108.774 69.8019 108.51C71.0042 108.088 70.9762 107.084 72.0936 106.472C73.4896 105.707 74.7877 107.262 76.1698 106.472C77.4156 105.76 78.3608 104.842 78.2079 103.415C78.058 102.016 75.6603 100.867 75.6603 100.867" stroke="#2D2D2D" stroke-width="0.996899"/>
<path d="M16.5552 33.6097C16.5552 33.6097 30.3124 48.1872 44.0696 52.4622C57.8269 56.7372 78.7174 58.5765 97.0604 52.4622C115.403 46.3479 121.518 33.6097 121.518 33.6097C96.0413 -17.8525 26.7457 -0.0190494 16.5552 33.6097Z" fill="url(#paint0_linear_1_58)" stroke="black"/>
<path d="M85.7907 113.31C85.2882 114.83 84.669 116.589 83.9538 118.382C82.9499 120.898 81.7776 123.435 80.5075 125.468C79.193 127.572 77.9455 128.851 76.8982 129.263H76.8972C74.0417 130.385 70.5381 130.963 67.3181 130.963C64.0348 130.963 61.3455 130.364 59.9372 129.415C59.7217 129.27 59.3709 128.915 58.9089 128.255C58.4652 127.621 57.9867 126.805 57.49 125.852C56.4972 123.945 55.4846 121.595 54.5691 119.286C53.9272 117.668 53.3395 116.083 52.8464 114.709C52.9232 114.745 53.0005 114.782 53.0798 114.817C56.202 116.209 61.2808 117.432 69.3493 117.125C77.4319 116.818 82.5096 115.12 85.6179 113.409C85.6767 113.377 85.7334 113.342 85.7907 113.31Z" stroke="black" stroke-width="2.9907"/>
<path d="M85.3526 114.15C84.8431 115.501 84.1075 117.319 83.2042 119.189C82.2994 121.062 81.2334 122.973 80.0645 124.519C78.8847 126.079 77.651 127.199 76.4327 127.594C73.756 128.464 70.5043 128.902 67.5264 128.902C64.528 128.902 61.8981 128.457 60.4171 127.632C60.0951 127.453 59.7134 127.11 59.2862 126.606C58.8639 126.108 58.42 125.48 57.9678 124.762C57.0636 123.328 56.1469 121.571 55.3243 119.857C54.5026 118.145 53.7798 116.487 53.2618 115.256C53.2072 115.127 53.1564 115.001 53.1065 114.881C53.6256 115.179 54.2991 115.504 55.1592 115.821C57.7986 116.792 62.1967 117.685 69.3087 117.462C76.4245 117.238 80.8235 116.007 83.461 114.807C84.3325 114.411 85.0101 114.017 85.5303 113.666C85.4739 113.819 85.4162 113.981 85.3526 114.15Z" fill="white" stroke="white" stroke-width="0.996899"/>
<path d="M75.1506 87.11L77.4447 91.1862C77.4447 91.1862 104.959 92.2052 106.741 91.1862C108.523 90.1671 108.707 85.7494 109.545 82.0147C110.242 78.9082 110.564 77.9385 111.327 74.3718C112.09 70.8051 106.273 69.5822 102.155 68.767C94.6462 67.2803 90.932 73.3142 84.8316 77.9385C80.6813 81.0845 75.1506 87.11 75.1506 87.11Z" fill="#D9D9D9" stroke="#2D2D2D" stroke-width="0.996899"/>
<path d="M65.0282 87.3399L62.9901 90.9066C62.9901 90.9066 34.5927 92.9447 33.4375 91.4161C32.2824 89.8875 31.4716 85.9793 30.6339 82.2446C29.9371 79.1381 29.6149 78.1684 28.8518 74.6017C28.0888 71.035 33.9057 69.8122 38.0233 68.9969C45.5325 67.5102 49.2468 73.5441 55.3472 78.1684C59.4975 81.3144 65.0282 87.3399 65.0282 87.3399Z" fill="#D9D9D9" stroke="#2D2D2D" stroke-width="0.996899"/>
<circle cx="53.2681" cy="87.3711" r="3.8201" fill="#CA0C26" stroke="#2D2D2D" stroke-width="0.996899"/>
<g filter="url(#filter1_f_1_58)">
<circle cx="53.2681" cy="87.3711" r="3.08468" fill="#CA0C26"/>
<circle cx="53.2681" cy="87.3711" r="2.58623" stroke="#CA0C26" stroke-width="0.996899"/>
</g>
<circle cx="86.093" cy="87.3523" r="3.8201" fill="#CA0C26" stroke="#2D2D2D" stroke-width="0.996899"/>
<g filter="url(#filter2_f_1_58)">
<circle cx="86.093" cy="87.3523" r="3.08468" fill="#CA0C26"/>
<circle cx="86.093" cy="87.3523" r="2.58623" stroke="#CA0C26" stroke-width="0.996899"/>
</g>
<g filter="url(#filter3_g_1_58)">
<path d="M70.3756 13.4862C72.0286 18.4965 63.6752 31.7808 52.626 35.4262C41.5768 39.0716 33.2405 33.0152 31.5874 28.0049C29.9344 22.9946 36.8431 15.855 47.8923 12.2096C58.9415 8.56417 68.7225 8.47581 70.3756 13.4862Z" fill="#FAA3FF"/>
</g>
<g filter="url(#filter4_g_1_58)">
<path d="M27.7646 30.043C27.7646 30.043 20.188 35.5962 22.416 38.1954C40.7589 59.5955 77.189 57.0479 90.9461 53.9907C104.703 50.9336 114.64 41.7621 114.64 41.7621C114.64 41.7621 109.049 32.2121 103.175 26.9858C96.7752 21.2924 84.322 15.7763 84.322 15.7763C84.322 15.7763 95.0771 26.7013 91.965 33.6097C90.1637 37.6082 83.9284 39.7918 80.5041 40.7148C79.025 41.1134 77.4718 40.8714 76.0736 40.2456C73.6499 39.1608 69.625 37.5404 66.4886 37.1764C56.6098 36.0298 51.2057 45.3288 42.7971 44.3097C36.825 43.586 31.0779 39.2145 30.5684 38.705C27.3218 35.4583 27.7646 30.043 27.7646 30.043Z" fill="url(#paint1_linear_1_58)"/>
</g>
<g filter="url(#filter5_g_1_58)">
<path d="M21.6504 34.6287C19.8683 35.1383 18.8493 35.6478 18.3398 32.5906C17.8302 29.5335 25.4731 18.8325 33.8791 12.7191C42.285 6.60574 53.9853 2.14071 68.5269 2.01905C82.7672 1.89991 90.0142 3.53936 102.665 11.7C110.564 16.7953 118.087 28.0049 119.989 32.0811C121.891 36.1573 118.716 35.6478 118.716 35.6478C118.716 35.6478 108.825 21.0243 100.627 15.7763C95.2122 12.3099 91.677 10.7546 85.3412 9.66194C78.4669 8.47643 73.1365 8.64556 66.2352 9.66194C59.1018 10.7125 43.8161 15.7763 31.3314 23.4192C26.3982 26.4392 23.4325 34.1192 21.6504 34.6287Z" fill="#FAA3FF"/>
</g>
<path d="M66.4902 122.108L55.6069 122.467L55.6136 121.584L66.4902 122.108Z" fill="black"/>
<path d="M73.7235 122.102L83.5824 122.681L83.5725 121.374L73.7235 122.102Z" fill="black"/>
<g filter="url(#filter6_g_1_58)">
<path d="M45.6202 112.606C45.6202 112.606 43.8544 108.099 45.6202 106.491C47.5834 104.704 52.244 108.02 52.244 108.02" stroke="#2D2D2D" stroke-width="0.996899" stroke-linecap="round"/>
</g>
<g filter="url(#filter7_g_1_58)">
<path d="M91.2022 111.586C91.2022 111.586 92.968 107.079 91.2022 105.472C89.239 103.685 84.5784 107.001 84.5784 107.001" stroke="#2D2D2D" stroke-width="0.996899" stroke-linecap="round"/>
</g>
<path d="M3.09907 102.831C3.07621 102.665 3.20597 102.521 3.37376 102.521C3.48993 102.521 3.59388 102.593 3.6345 102.702L7.1336 112.077L10.622 122.044C10.6699 122.18 10.6352 122.332 10.5327 122.435C10.359 122.609 10.0698 122.573 9.94618 122.361C9.08883 120.89 6.20656 115.817 4.99422 112.077C3.98018 108.949 3.2731 104.097 3.09907 102.831Z" fill="#0B0011"/>
<path d="M136.097 101.525C136.12 101.358 135.99 101.214 135.823 101.214C135.706 101.214 135.602 101.287 135.562 101.395L132.063 110.77L128.574 120.737C128.526 120.874 128.561 121.026 128.664 121.129C128.837 121.302 129.126 121.267 129.25 121.055C130.107 119.584 132.99 114.51 134.202 110.77C135.216 107.642 135.923 102.79 136.097 101.525Z" fill="#0B0011"/>
<g filter="url(#filter8_f_1_58)">
<path d="M69.447 97.1519C69.6877 96.874 70.1188 96.874 70.3595 97.1519L72.6955 99.8494C73.1018 100.319 72.6205 101.022 72.0361 100.813L70.8999 100.407C70.7891 100.367 70.6691 100.361 70.5548 100.388L67.4394 101.143C66.8686 101.281 66.4567 100.605 66.8412 100.161L69.447 97.1519Z" fill="#9E96A1"/>
</g>
<path d="M15.3333 63.8667V67.3982C15.3333 67.7616 15.2257 68.117 15.0241 68.4194V68.4194C14.1027 69.8015 14.6011 71.6784 16.0869 72.4213L19.7775 74.2666C20.8883 74.822 22.1132 75.1112 23.3552 75.1112H23.4365C25.1321 75.1112 26.77 74.4957 28.046 73.3792L30.1555 71.5334L32.5598 70.222C34.6713 69.0702 37.0381 68.4667 39.4433 68.4667V68.4667C42.0346 68.4667 44.5498 69.3418 46.5815 70.9502L55.7111 78.1778L66.4445 88.4001" stroke="black" stroke-linecap="round"/>
<path d="M124.711 61.3112V67.3982C124.711 67.7616 124.819 68.117 125.02 68.4194V68.4194C125.942 69.8015 125.443 71.6784 123.958 72.4213L120.267 74.2666C119.156 74.822 117.931 75.1112 116.689 75.1112H116.608C114.912 75.1112 113.274 74.4957 111.998 73.3792L109.889 71.5334L107.485 70.222C105.373 69.0702 103.006 68.4667 100.601 68.4667V68.4667C98.0099 68.4667 95.4946 69.3418 93.463 70.9502L84.3334 78.1778L73.0889 88.4001" stroke="black" stroke-linecap="round"/>
<g filter="url(#filter9_g_1_58)">
<path d="M18.5953 61.8223L24.2176 56.7112C24.2176 56.7112 21.9645 52.1111 21.4065 49.0445C20.8484 45.9778 20.8953 40.8667 20.8953 40.8667C20.8953 40.8667 17.5731 50.5778 18.5953 61.8223Z" fill="#030005"/>
</g>
<g filter="url(#filter10_g_1_58)">
<path d="M24.8581 44.5576C24.8581 44.5576 24.1569 52.3446 28.2079 56.5338C29.1623 57.5208 41.42 55.1069 41.42 55.1069C41.42 55.1069 35.543 53.0888 32.2325 50.9583C29.0257 48.8947 24.8581 44.5576 24.8581 44.5576Z" fill="#C5B0CF"/>
</g>
<g filter="url(#filter11_g_1_58)">
<path d="M34.6107 64.5385C34.0666 64.4893 33.9548 63.7427 34.4606 63.5362L38.2982 61.9691C38.9459 61.7046 39.4863 61.2307 39.8331 60.6231L40.413 59.6069C40.7134 59.0805 41.3977 58.9201 41.9008 59.2581L45.7523 61.8461C46.3978 62.2798 47.0048 62.7682 47.5666 63.306L50.8671 66.4655C51.4506 67.0241 51.986 67.631 52.4674 68.2797L58.4515 76.342C58.6611 76.6243 58.2716 76.9606 58.0228 76.7121L54.3613 73.2635L52.4088 71.2778L50.6758 69.5447L49.9481 68.9722C47.0933 66.7262 43.6483 65.3565 40.0307 65.0291L34.6107 64.5385Z" fill="#C3ADD3"/>
</g>
<g filter="url(#filter12_g_1_58)">
<path d="M17.2539 69.1793C17.0379 69.6467 17.2015 70.2056 17.6403 70.4749L20.0346 71.9446C20.23 72.0645 20.4846 71.9472 20.5203 71.7207L20.6341 70.9994C20.9812 68.7986 22.9395 67.219 25.1639 67.3455C25.5548 67.3677 25.9091 67.1092 26.0478 66.743C26.4147 65.7748 27.3136 63.9363 29.1333 62.8445C31.0698 61.6826 35.7778 59.2667 35.7778 59.2667C35.7778 59.2667 20.4289 60.9081 19.4222 63.8667C18.7289 65.9042 17.7785 68.0443 17.2539 69.1793Z" fill="#030005"/>
</g>
<g filter="url(#filter13_g_1_58)">
<path d="M120.002 62.8445L114.38 57.7334C114.38 57.7334 116.633 53.1334 117.191 50.0667C117.749 47 117.702 41.8889 117.702 41.8889C117.702 41.8889 121.025 51.6 120.002 62.8445Z" fill="#030005"/>
</g>
<g filter="url(#filter14_g_1_58)">
<path d="M113.74 45.5798C113.74 45.5798 114.441 53.3668 110.39 57.5561C109.435 58.543 97.1777 56.1291 97.1777 56.1291C97.1777 56.1291 103.055 54.111 106.365 51.9806C109.572 49.9169 113.74 45.5798 113.74 45.5798Z" fill="#C5B0CF"/>
</g>
<g filter="url(#filter15_g_1_58)">
<path d="M103.987 65.5607C104.531 65.5115 104.643 64.765 104.137 64.5584L100.299 62.9913C99.6517 62.7268 99.1113 62.2529 98.7645 61.6453L98.1847 60.6292C97.8842 60.1028 97.2 59.9423 96.6969 60.2804L92.8454 62.8683C92.1999 63.302 91.5929 63.7905 91.0311 64.3283L87.7306 67.4878C87.1471 68.0464 86.6117 68.6533 86.1302 69.3019L80.1462 77.3642C79.9366 77.6466 80.326 77.9828 80.5748 77.7343L84.2364 74.2858L86.1889 72.3L87.9219 70.5669L88.6496 69.9944C91.5044 67.7485 94.9494 66.3787 98.567 66.0513L103.987 65.5607Z" fill="#C3ADD3"/>
</g>
<g filter="url(#filter16_g_1_58)">
<path d="M121.344 70.2015C121.56 70.6689 121.396 71.2278 120.957 71.4971L118.563 72.9668C118.368 73.0867 118.113 72.9694 118.077 72.7429L117.964 72.0216C117.616 69.8209 115.658 68.2412 113.434 68.3677C113.043 68.3899 112.689 68.1314 112.55 67.7653C112.183 66.797 111.284 64.9585 109.464 63.8667C107.528 62.7049 102.82 60.2889 102.82 60.2889C102.82 60.2889 118.169 61.9304 119.175 64.8889C119.869 66.9265 120.819 69.0665 121.344 70.2015Z" fill="#030005"/>
</g>
<g filter="url(#filter17_g_1_58)">
<path d="M15.3333 72.5556L16.0125 76.0488C16.4866 78.4869 18.0662 80.5665 20.2878 81.6773L24.8136 83.9402C25.1706 84.1187 25.505 84.3394 25.8096 84.5974L32.7111 90.4445L30.6667 82.7778L28.6222 74.0889C28.7909 73.7515 28.4395 73.3905 28.0977 73.55L24.5245 75.2175C22.6258 76.1036 20.4024 75.935 18.659 74.7727L15.3333 72.5556Z" fill="#080A07"/>
<path d="M15.3333 72.5556L16.0125 76.0488C16.4866 78.4869 18.0662 80.5665 20.2878 81.6773L24.8136 83.9402C25.1706 84.1187 25.505 84.3394 25.8096 84.5974L32.7111 90.4445L30.6667 82.7778L28.6222 74.0889C28.7909 73.7515 28.4395 73.3905 28.0977 73.55L24.5245 75.2175C22.6258 76.1036 20.4024 75.935 18.659 74.7727L15.3333 72.5556Z" stroke="black" stroke-width="1.04315"/>
</g>
<g filter="url(#filter18_g_1_58)">
<path d="M124.711 72.5556L124.032 76.0488C123.558 78.4869 121.978 80.5665 119.757 81.6773L115.231 83.9402C114.874 84.1187 114.539 84.3394 114.235 84.5974L107.333 90.4445L109.378 82.7778L111.422 74.0889C111.254 73.7515 111.605 73.3905 111.947 73.55L115.52 75.2175C117.419 76.1036 119.642 75.935 121.386 74.7727L124.711 72.5556Z" fill="#080A07"/>
<path d="M124.711 72.5556L124.032 76.0488C123.558 78.4869 121.978 80.5665 119.757 81.6773L115.231 83.9402C114.874 84.1187 114.539 84.3394 114.235 84.5974L107.333 90.4445L109.378 82.7778L111.422 74.0889C111.254 73.7515 111.605 73.3905 111.947 73.55L115.52 75.2175C117.419 76.1036 119.642 75.935 121.386 74.7727L124.711 72.5556Z" stroke="black" stroke-width="1.04315"/>
</g>
<g filter="url(#filter19_g_1_58)">
<path d="M38.8444 123.667L35.4122 109.556C34.6452 106.403 33.1225 103.484 30.9756 101.051L26.5778 96.0667H38.8444L38.8444 123.667Z" fill="black"/>
</g>
<g filter="url(#filter20_g_1_58)">
<path d="M98.1334 122.645L100.134 107.04C100.5 104.182 101.425 101.424 102.854 98.9222L104.778 95.5556H97.6223L98.1334 122.645Z" fill="black"/>
</g>
<g filter="url(#filter21_g_1_58)">
<path d="M32.9011 111.427C36.0485 119.289 35.384 128.935 35.384 128.935C34.1195 129.442 31.335 123.51 28.1876 115.648C25.0403 107.786 23.514 101.003 24.7786 100.496C26.0431 99.99 28.8807 102.199 32.9011 111.427Z" fill="#C7AFD3"/>
</g>
<g filter="url(#filter22_g_1_58)">
<path d="M73.1734 81.5067C72.5173 82.0222 71.5556 81.5548 71.5556 80.7204V79.4905C71.5556 76.0555 73.0277 72.7851 75.5991 70.5075L88.2966 59.2611C88.742 58.8667 89.4445 59.1829 89.4445 59.7778L87.0086 63.0257C86.5895 63.5845 86.1068 64.0926 85.5702 64.5397L84.6666 65.2927C81.8082 67.6747 79.8693 70.9785 79.1836 74.6356L78.7111 77.1556L73.1734 81.5067Z" fill="#030005"/>
</g>
<g filter="url(#filter23_g_1_58)">
<path d="M65.3377 81.5067C65.9939 82.0222 66.9556 81.5548 66.9556 80.7204V79.4905C66.9556 76.0555 65.4835 72.7851 62.912 70.5075L50.2145 59.2611C49.7691 58.8667 49.0667 59.1829 49.0667 59.7778L51.5026 63.0257C51.9217 63.5845 52.4044 64.0926 52.9409 64.5397L53.8445 65.2927C56.7029 67.6747 58.6418 70.9785 59.3275 74.6356L59.8 77.1556L65.3377 81.5067Z" fill="#030005"/>
</g>
<path d="M69.785 75.5034L69.9865 82.9839C70.01 83.8557 70.2446 84.7088 70.6703 85.47H68.8997L69.3054 83.9462C69.533 83.0912 69.6566 82.2117 69.6736 81.3271L69.785 75.5034Z" fill="#050006"/>
<g filter="url(#filter24_g_1_58)">
<path d="M103.2 120.089C102.095 120.089 101.2 119.194 101.2 118.089V111.4L110.911 100.156L109.953 118.848C109.91 119.672 109.766 120.488 109.523 121.277L106.397 131.436C106.047 132.577 104.353 132.255 104.445 131.066L105.289 120.089H103.2Z" fill="#C7AFD3"/>
</g>
<path d="M75.5622 142.589C75.8283 143.686 72.4844 140.578 68.4066 141.567C63.8889 142.067 59.9839 144.018 59.7177 142.92C59.4516 141.823 63.2398 140.344 67.3176 139.355C71.3954 138.366 75.296 141.492 75.5622 142.589Z" fill="#464646"/>
<path d="M76.6957 144.92C77.0145 146.235 73.0091 142.511 68.1246 143.696C62.7132 144.295 58.0356 146.632 57.7169 145.317C57.3981 144.003 61.9357 142.232 66.8202 141.047C71.7046 139.862 76.3769 143.606 76.6957 144.92Z" fill="#BABABA"/>
<g filter="url(#filter25_g_1_58)">
<path d="M4.59997 100.156L12.7778 93.5112L18.9111 116.511H11.2444L4.59997 100.156Z" fill="black"/>
</g>
<g filter="url(#filter26_g_1_58)">
<path d="M134.933 100.667L126.756 94.0223L120.622 117.022H128.289L134.933 100.667Z" fill="black"/>
</g>
<path d="M40.8889 99.0667V107.311C43.1457 102.475 47.5138 98.9564 52.7193 97.781L60.3112 96.0667H43.8889C42.2321 96.0667 40.8889 97.4099 40.8889 99.0667Z" fill="#9F98A2"/>
<defs>
<filter id="filter0_i_1_58" x="38.9744" y="85.0666" width="59.361" height="71.9066" filterUnits="userSpaceOnUse" color-interpolation-filters="sRGB">
<feFlood flood-opacity="0" result="BackgroundImageFix"/>
<feBlend mode="normal" in="SourceGraphic" in2="BackgroundImageFix" result="shape"/>
<feColorMatrix in="SourceAlpha" type="matrix" values="0 0 0 0 0 0 0 0 0 0 0 0 0 0 0 0 0 0 127 0" result="hardAlpha"/>
<feOffset dx="-3" dy="3"/>
<feComposite in2="hardAlpha" operator="arithmetic" k2="-1" k3="1"/>
<feColorMatrix type="matrix" values="0 0 0 0 0 0 0 0 0 0 0 0 0 0 0 0 0 0 0.25 0"/>
<feBlend mode="normal" in2="shape" result="effect1_innerShadow_1_58"/>
</filter>
<filter id="filter1_f_1_58" x="48.3728" y="82.4758" width="9.79051" height="9.79051" filterUnits="userSpaceOnUse" color-interpolation-filters="sRGB">
<feFlood flood-opacity="0" result="BackgroundImageFix"/>
<feBlend mode="normal" in="SourceGraphic" in2="BackgroundImageFix" result="shape"/>
<feGaussianBlur stdDeviation="0.905286" result="effect1_foregroundBlur_1_58"/>
</filter>
<filter id="filter2_f_1_58" x="81.1978" y="82.4571" width="9.79051" height="9.79051" filterUnits="userSpaceOnUse" color-interpolation-filters="sRGB">
<feFlood flood-opacity="0" result="BackgroundImageFix"/>
<feBlend mode="normal" in="SourceGraphic" in2="BackgroundImageFix" result="shape"/>
<feGaussianBlur stdDeviation="0.905286" result="effect1_foregroundBlur_1_58"/>
</filter>
<filter id="filter3_g_1_58" x="29.3501" y="7.59281" width="43.2284" height="30.94" filterUnits="userSpaceOnUse" color-interpolation-filters="sRGB">
<feFlood flood-opacity="0" result="BackgroundImageFix"/>
<feBlend mode="normal" in="SourceGraphic" in2="BackgroundImageFix" result="shape"/>
<feTurbulence type="fractalNoise" baseFrequency="10.031106948852539 10.031106948852539" numOctaves="3" seed="4940" />
<feDisplacementMap in="shape" scale="3.9875960350036621" xChannelSelector="R" yChannelSelector="G" result="displacedImage" width="100%" height="100%" />
<feMerge result="effect1_texture_1_58">
<feMergeNode in="displacedImage"/>
</feMerge>
</filter>
<filter id="filter4_g_1_58" x="20.0121" y="13.7825" width="96.622" height="44.2225" filterUnits="userSpaceOnUse" color-interpolation-filters="sRGB">
<feFlood flood-opacity="0" result="BackgroundImageFix"/>
<feBlend mode="normal" in="SourceGraphic" in2="BackgroundImageFix" result="shape"/>
<feTurbulence type="fractalNoise" baseFrequency="10.031106948852539 10.031106948852539" numOctaves="3" seed="4940" />
<feDisplacementMap in="shape" scale="3.9875960350036621" xChannelSelector="R" yChannelSelector="G" result="displacedImage" width="100%" height="100%" />
<feMerge result="effect1_texture_1_58">
<feMergeNode in="displacedImage"/>
</feMerge>
</filter>
<filter id="filter5_g_1_58" x="16.3218" y="0.0193684" width="106.268" height="37.6426" filterUnits="userSpaceOnUse" color-interpolation-filters="sRGB">
<feFlood flood-opacity="0" result="BackgroundImageFix"/>
<feBlend mode="normal" in="SourceGraphic" in2="BackgroundImageFix" result="shape"/>
<feTurbulence type="fractalNoise" baseFrequency="10.031106948852539 10.031106948852539" numOctaves="3" seed="4940" />
<feDisplacementMap in="shape" scale="3.9875960350036621" xChannelSelector="R" yChannelSelector="G" result="displacedImage" width="100%" height="100%" />
<feMerge result="effect1_texture_1_58">
<feMergeNode in="displacedImage"/>
</feMerge>
</filter>
<filter id="filter6_g_1_58" x="44.0379" y="105.165" width="9.00371" height="8.23815" filterUnits="userSpaceOnUse" color-interpolation-filters="sRGB">
<feFlood flood-opacity="0" result="BackgroundImageFix"/>
<feBlend mode="normal" in="SourceGraphic" in2="BackgroundImageFix" result="shape"/>
<feTurbulence type="fractalNoise" baseFrequency="10.031106948852539 10.031106948852539" numOctaves="3" seed="4291" />
<feDisplacementMap in="shape" scale="0.59813940525054932" xChannelSelector="R" yChannelSelector="G" result="displacedImage" width="100%" height="100%" />
<feMerge result="effect1_texture_1_58">
<feMergeNode in="displacedImage"/>
</feMerge>
</filter>
<filter id="filter7_g_1_58" x="83.7808" y="104.146" width="9.0037" height="8.23815" filterUnits="userSpaceOnUse" color-interpolation-filters="sRGB">
<feFlood flood-opacity="0" result="BackgroundImageFix"/>
<feBlend mode="normal" in="SourceGraphic" in2="BackgroundImageFix" result="shape"/>
<feTurbulence type="fractalNoise" baseFrequency="10.031106948852539 10.031106948852539" numOctaves="3" seed="4291" />
<feDisplacementMap in="shape" scale="0.59813940525054932" xChannelSelector="R" yChannelSelector="G" result="displacedImage" width="100%" height="100%" />
<feMerge result="effect1_texture_1_58">
<feMergeNode in="displacedImage"/>
</feMerge>
</filter>
<filter id="filter8_f_1_58" x="66.2689" y="96.521" width="6.99979" height="5.06227" filterUnits="userSpaceOnUse" color-interpolation-filters="sRGB">
<feFlood flood-opacity="0" result="BackgroundImageFix"/>
<feBlend mode="normal" in="SourceGraphic" in2="BackgroundImageFix" result="shape"/>
<feGaussianBlur stdDeviation="0.211236" result="effect1_foregroundBlur_1_58"/>
</filter>
<filter id="filter9_g_1_58" x="17.4" y="39.8667" width="7.81757" height="22.9556" filterUnits="userSpaceOnUse" color-interpolation-filters="sRGB">
<feFlood flood-opacity="0" result="BackgroundImageFix"/>
<feBlend mode="normal" in="SourceGraphic" in2="BackgroundImageFix" result="shape"/>
<feTurbulence type="fractalNoise" baseFrequency="10 10" numOctaves="3" seed="1256" />
<feDisplacementMap in="shape" scale="2" xChannelSelector="R" yChannelSelector="G" result="displacedImage" width="100%" height="100%" />
<feMerge result="effect1_texture_1_58">
<feMergeNode in="displacedImage"/>
</feMerge>
</filter>
<filter id="filter10_g_1_58" x="23.8117" y="43.5576" width="18.6083" height="14.2133" filterUnits="userSpaceOnUse" color-interpolation-filters="sRGB">
<feFlood flood-opacity="0" result="BackgroundImageFix"/>
<feBlend mode="normal" in="SourceGraphic" in2="BackgroundImageFix" result="shape"/>
<feTurbulence type="fractalNoise" baseFrequency="10 10" numOctaves="3" seed="1256" />
<feDisplacementMap in="shape" scale="2" xChannelSelector="R" yChannelSelector="G" result="displacedImage" width="100%" height="100%" />
<feMerge result="effect1_texture_1_58">
<feMergeNode in="displacedImage"/>
</feMerge>
</filter>
<filter id="filter11_g_1_58" x="33.1359" y="58.0807" width="26.3754" height="19.7182" filterUnits="userSpaceOnUse" color-interpolation-filters="sRGB">
<feFlood flood-opacity="0" result="BackgroundImageFix"/>
<feBlend mode="normal" in="SourceGraphic" in2="BackgroundImageFix" result="shape"/>
<feTurbulence type="fractalNoise" baseFrequency="10 10" numOctaves="3" seed="1256" />
<feDisplacementMap in="shape" scale="2" xChannelSelector="R" yChannelSelector="G" result="displacedImage" width="100%" height="100%" />
<feMerge result="effect1_texture_1_58">
<feMergeNode in="displacedImage"/>
</feMerge>
</filter>
<filter id="filter12_g_1_58" x="16.1591" y="58.2667" width="20.6186" height="14.7256" filterUnits="userSpaceOnUse" color-interpolation-filters="sRGB">
<feFlood flood-opacity="0" result="BackgroundImageFix"/>
<feBlend mode="normal" in="SourceGraphic" in2="BackgroundImageFix" result="shape"/>
<feTurbulence type="fractalNoise" baseFrequency="10 10" numOctaves="3" seed="1256" />
<feDisplacementMap in="shape" scale="2" xChannelSelector="R" yChannelSelector="G" result="displacedImage" width="100%" height="100%" />
<feMerge result="effect1_texture_1_58">
<feMergeNode in="displacedImage"/>
</feMerge>
</filter>
<filter id="filter13_g_1_58" x="112.18" y="39.6889" width="10.2176" height="25.3556" filterUnits="userSpaceOnUse" color-interpolation-filters="sRGB">
<feFlood flood-opacity="0" result="BackgroundImageFix"/>
<feBlend mode="normal" in="SourceGraphic" in2="BackgroundImageFix" result="shape"/>
<feTurbulence type="fractalNoise" baseFrequency="10 10" numOctaves="3" seed="1256" />
<feDisplacementMap in="shape" scale="4.4000000953674316" xChannelSelector="R" yChannelSelector="G" result="displacedImage" width="100%" height="100%" />
<feMerge result="effect1_texture_1_58">
<feMergeNode in="displacedImage"/>
</feMerge>
</filter>
<filter id="filter14_g_1_58" x="96.1777" y="44.5799" width="18.6083" height="14.2133" filterUnits="userSpaceOnUse" color-interpolation-filters="sRGB">
<feFlood flood-opacity="0" result="BackgroundImageFix"/>
<feBlend mode="normal" in="SourceGraphic" in2="BackgroundImageFix" result="shape"/>
<feTurbulence type="fractalNoise" baseFrequency="10 10" numOctaves="3" seed="1256" />
<feDisplacementMap in="shape" scale="2" xChannelSelector="R" yChannelSelector="G" result="displacedImage" width="100%" height="100%" />
<feMerge result="effect1_texture_1_58">
<feMergeNode in="displacedImage"/>
</feMerge>
</filter>
<filter id="filter15_g_1_58" x="79.0864" y="59.1029" width="26.3754" height="19.7182" filterUnits="userSpaceOnUse" color-interpolation-filters="sRGB">
<feFlood flood-opacity="0" result="BackgroundImageFix"/>
<feBlend mode="normal" in="SourceGraphic" in2="BackgroundImageFix" result="shape"/>
<feTurbulence type="fractalNoise" baseFrequency="10 10" numOctaves="3" seed="1256" />
<feDisplacementMap in="shape" scale="2" xChannelSelector="R" yChannelSelector="G" result="displacedImage" width="100%" height="100%" />
<feMerge result="effect1_texture_1_58">
<feMergeNode in="displacedImage"/>
</feMerge>
</filter>
<filter id="filter16_g_1_58" x="101.82" y="59.2889" width="20.6186" height="14.7256" filterUnits="userSpaceOnUse" color-interpolation-filters="sRGB">
<feFlood flood-opacity="0" result="BackgroundImageFix"/>
<feBlend mode="normal" in="SourceGraphic" in2="BackgroundImageFix" result="shape"/>
<feTurbulence type="fractalNoise" baseFrequency="10 10" numOctaves="3" seed="1256" />
<feDisplacementMap in="shape" scale="2" xChannelSelector="R" yChannelSelector="G" result="displacedImage" width="100%" height="100%" />
<feMerge result="effect1_texture_1_58">
<feMergeNode in="displacedImage"/>
</feMerge>
</filter>
<filter id="filter17_g_1_58" x="14.3828" y="71.2284" width="19.4612" height="20.89" filterUnits="userSpaceOnUse" color-interpolation-filters="sRGB">
<feFlood flood-opacity="0" result="BackgroundImageFix"/>
<feBlend mode="normal" in="SourceGraphic" in2="BackgroundImageFix" result="shape"/>
<feTurbulence type="fractalNoise" baseFrequency="10 10" numOctaves="3" seed="2798" />
<feDisplacementMap in="shape" scale="0.40000000596046448" xChannelSelector="R" yChannelSelector="G" result="displacedImage" width="100%" height="100%" />
<feMerge result="effect1_texture_1_58">
<feMergeNode in="displacedImage"/>
</feMerge>
</filter>
<filter id="filter18_g_1_58" x="106.201" y="71.2284" width="19.4612" height="20.89" filterUnits="userSpaceOnUse" color-interpolation-filters="sRGB">
<feFlood flood-opacity="0" result="BackgroundImageFix"/>
<feBlend mode="normal" in="SourceGraphic" in2="BackgroundImageFix" result="shape"/>
<feTurbulence type="fractalNoise" baseFrequency="10 10" numOctaves="3" seed="2798" />
<feDisplacementMap in="shape" scale="0.40000000596046448" xChannelSelector="R" yChannelSelector="G" result="displacedImage" width="100%" height="100%" />
<feMerge result="effect1_texture_1_58">
<feMergeNode in="displacedImage"/>
</feMerge>
</filter>
<filter id="filter19_g_1_58" x="25.5778" y="95.0667" width="14.2667" height="29.6" filterUnits="userSpaceOnUse" color-interpolation-filters="sRGB">
<feFlood flood-opacity="0" result="BackgroundImageFix"/>
<feBlend mode="normal" in="SourceGraphic" in2="BackgroundImageFix" result="shape"/>
<feTurbulence type="fractalNoise" baseFrequency="10 10" numOctaves="3" seed="1256" />
<feDisplacementMap in="shape" scale="2" xChannelSelector="R" yChannelSelector="G" result="displacedImage" width="100%" height="100%" />
<feMerge result="effect1_texture_1_58">
<feMergeNode in="displacedImage"/>
</feMerge>
</filter>
<filter id="filter20_g_1_58" x="96.6223" y="94.5556" width="9.15556" height="29.0889" filterUnits="userSpaceOnUse" color-interpolation-filters="sRGB">
<feFlood flood-opacity="0" result="BackgroundImageFix"/>
<feBlend mode="normal" in="SourceGraphic" in2="BackgroundImageFix" result="shape"/>
<feTurbulence type="fractalNoise" baseFrequency="10 10" numOctaves="3" seed="1256" />
<feDisplacementMap in="shape" scale="2" xChannelSelector="R" yChannelSelector="G" result="displacedImage" width="100%" height="100%" />
<feMerge result="effect1_texture_1_58">
<feMergeNode in="displacedImage"/>
</feMerge>
</filter>
<filter id="filter21_g_1_58" x="23.3342" y="99.4286" width="13.1084" height="30.537" filterUnits="userSpaceOnUse" color-interpolation-filters="sRGB">
<feFlood flood-opacity="0" result="BackgroundImageFix"/>
<feBlend mode="normal" in="SourceGraphic" in2="BackgroundImageFix" result="shape"/>
<feTurbulence type="fractalNoise" baseFrequency="10 10" numOctaves="3" seed="1256" />
<feDisplacementMap in="shape" scale="2" xChannelSelector="R" yChannelSelector="G" result="displacedImage" width="100%" height="100%" />
<feMerge result="effect1_texture_1_58">
<feMergeNode in="displacedImage"/>
</feMerge>
</filter>
<filter id="filter22_g_1_58" x="70.5556" y="58.0863" width="19.8889" height="24.636" filterUnits="userSpaceOnUse" color-interpolation-filters="sRGB">
<feFlood flood-opacity="0" result="BackgroundImageFix"/>
<feBlend mode="normal" in="SourceGraphic" in2="BackgroundImageFix" result="shape"/>
<feTurbulence type="fractalNoise" baseFrequency="10 10" numOctaves="3" seed="1256" />
<feDisplacementMap in="shape" scale="2" xChannelSelector="R" yChannelSelector="G" result="displacedImage" width="100%" height="100%" />
<feMerge result="effect1_texture_1_58">
<feMergeNode in="displacedImage"/>
</feMerge>
</filter>
<filter id="filter23_g_1_58" x="48.0667" y="58.0863" width="19.8889" height="24.636" filterUnits="userSpaceOnUse" color-interpolation-filters="sRGB">
<feFlood flood-opacity="0" result="BackgroundImageFix"/>
<feBlend mode="normal" in="SourceGraphic" in2="BackgroundImageFix" result="shape"/>
<feTurbulence type="fractalNoise" baseFrequency="10 10" numOctaves="3" seed="1256" />
<feDisplacementMap in="shape" scale="2" xChannelSelector="R" yChannelSelector="G" result="displacedImage" width="100%" height="100%" />
<feMerge result="effect1_texture_1_58">
<feMergeNode in="displacedImage"/>
</feMerge>
</filter>
<filter id="filter24_g_1_58" x="100.2" y="99.1556" width="11.7111" height="33.9882" filterUnits="userSpaceOnUse" color-interpolation-filters="sRGB">
<feFlood flood-opacity="0" result="BackgroundImageFix"/>
<feBlend mode="normal" in="SourceGraphic" in2="BackgroundImageFix" result="shape"/>
<feTurbulence type="fractalNoise" baseFrequency="10 10" numOctaves="3" seed="1256" />
<feDisplacementMap in="shape" scale="2" xChannelSelector="R" yChannelSelector="G" result="displacedImage" width="100%" height="100%" />
<feMerge result="effect1_texture_1_58">
<feMergeNode in="displacedImage"/>
</feMerge>
</filter>
<filter id="filter25_g_1_58" x="3.59997" y="92.5112" width="16.3111" height="25" filterUnits="userSpaceOnUse" color-interpolation-filters="sRGB">
<feFlood flood-opacity="0" result="BackgroundImageFix"/>
<feBlend mode="normal" in="SourceGraphic" in2="BackgroundImageFix" result="shape"/>
<feTurbulence type="fractalNoise" baseFrequency="10 10" numOctaves="3" seed="1256" />
<feDisplacementMap in="shape" scale="2" xChannelSelector="R" yChannelSelector="G" result="displacedImage" width="100%" height="100%" />
<feMerge result="effect1_texture_1_58">
<feMergeNode in="displacedImage"/>
</feMerge>
</filter>
<filter id="filter26_g_1_58" x="119.622" y="93.0223" width="16.3111" height="25" filterUnits="userSpaceOnUse" color-interpolation-filters="sRGB">
<feFlood flood-opacity="0" result="BackgroundImageFix"/>
<feBlend mode="normal" in="SourceGraphic" in2="BackgroundImageFix" result="shape"/>
<feTurbulence type="fractalNoise" baseFrequency="10 10" numOctaves="3" seed="1256" />
<feDisplacementMap in="shape" scale="2" xChannelSelector="R" yChannelSelector="G" result="displacedImage" width="100%" height="100%" />
<feMerge result="effect1_texture_1_58">
<feMergeNode in="displacedImage"/>
</feMerge>
</filter>
<linearGradient id="paint0_linear_1_58" x1="69.0364" y1="1.35755" x2="69.0364" y2="56.3883" gradientUnits="userSpaceOnUse">
<stop offset="0.100962" stop-color="#F945FC"/>
<stop offset="1" stop-color="#54105E"/>
</linearGradient>
<linearGradient id="paint1_linear_1_58" x1="69.0028" y1="15.7763" x2="69.0028" y2="56.3337" gradientUnits="userSpaceOnUse">
<stop offset="0.5" stop-color="#6A1273"/>
<stop offset="0.927885" stop-color="#0C020D"/>
</linearGradient>
</defs>
</svg>
